HIERARCHY
ROOT Hips
{
  OFFSET 1.44925e-005 102.336 -0.101585
  CHANNELS 6 Xposition Yposition Zposition Zrotation Xrotation Yrotation
  JOINT LeftUpLeg
  {
    OFFSET 8.9458 -8.66707 0.101652
    CHANNELS 3 Zrotation Xrotation Yrotation
    JOINT LeftLeg
    {
      OFFSET 0 -44.4227 1.3727
      CHANNELS 3 Zrotation Xrotation Yrotation
      JOINT LeftFoot
      {
        OFFSET -0.253549 -42.0924 -1.46059
        CHANNELS 3 Zrotation Xrotation Yrotation
        JOINT LeftToes
        {
          OFFSET -0.04 -4.41509 8.4991
          CHANNELS 3 Zrotation Xrotation Yrotation
          End Site
          {
            OFFSET 0.08 -0.047448 9.77979
          }
        }
      }
    }
  }
  JOINT Spine
  {
    OFFSET 0 11.8905 0
    CHANNELS 3 Zrotation Xrotation Yrotation
    JOINT Spine1
    {
      OFFSET 0 25.6574 0.127663
      CHANNELS 3 Zrotation Xrotation Yrotation
      JOINT RightShoulder
      {
        OFFSET -8.99 -0.362252 -0.22
        CHANNELS 3 Zrotation Xrotation Yrotation
        JOINT RightArm
        {
          OFFSET -10.2827 -0.00338 0.322123
          CHANNELS 3 Zrotation Xrotation Yrotation
          JOINT RightForeArm
          {
            OFFSET -26.364 0.099144 -1.42434
            CHANNELS 3 Zrotation Xrotation Yrotation
            JOINT RightHand
            {
              OFFSET -22.0324 0.085362 1.02216
              CHANNELS 3 Zrotation Xrotation Yrotation
              End Site
              {
                OFFSET -13.3284 -0.6 1.50291
              }
            }
          }
        }
      }
      JOINT LeftShoulder1
      {
        OFFSET 8.99 -0.362252 -0.22
        CHANNELS 3 Zrotation Xrotation Yrotation
        JOINT LeftArm
        {
          OFFSET 10.2827 -0.00337999 0.322123
          CHANNELS 3 Zrotation Xrotation Yrotation
          JOINT LeftForeArm
          {
            OFFSET 26.2597 0.099144 -1.42434
            CHANNELS 3 Zrotation Xrotation Yrotation
            JOINT LeftHand
            {
              OFFSET 22.0902 0.085362 1.02216
              CHANNELS 3 Zrotation Xrotation Yrotation
              End Site
              {
                OFFSET 13.419 -0.6 1.50291
              }
            }
          }
        }
      }
      JOINT Head
      {
        OFFSET 0 8.73416 0.011341
        CHANNELS 3 Zrotation Xrotation Yrotation
        End Site
        {
          OFFSET -0.29 12.7742 2.51395
        }
      }
    }
  }
  JOINT RightUpLeg
  {
    OFFSET -8.9458 -8.66707 0.101652
    CHANNELS 3 Zrotation Xrotation Yrotation
    JOINT RightLeg
    {
      OFFSET 0 -44.4227 1.3727
      CHANNELS 3 Zrotation Xrotation Yrotation
      JOINT RightFoot
      {
        OFFSET 0.253549 -42.0924 -1.46059
        CHANNELS 3 Zrotation Xrotation Yrotation
        JOINT RightToes
        {
          OFFSET 0.04 -4.41509 8.4991
          CHANNELS 3 Zrotation Xrotation Yrotation
          End Site
          {
            OFFSET -0.08 -0.137448 9.77979
          }
        }
      }
    }
  }
}
MOTION
Frames:	19
Frame Time:	0.0333333
42.5787 97.272 5.41574 -9.57596 -0.92027 -92.8688 -3.80645 -16.142 0.82119 1.18913 27.7745 22.2324 0.39334 -7.4895 0.0350232 -1.28597e-009 8.75253e-006 -1.47385e-008 -1.99879 6.83294 -0.351598 2.72913 0.243798 -0.927351 36.7065 1.77601 0.135604 46.0729 -28.7164 26.8656 13.7102 35.0915 -8.48312 -7.68283 9.75171 -3.08079 -35.5824 2.70229 -2.9757 -49.1767 -25.0275 -44.2536 -19.5681 46.9252 14.239 5.82328 9.61819 -0.917488 -1.90921 3.67936 -0.88928 -1.88275 14.4363 -4.20202 -0.741554 33.1966 -9.54406 17.2034 -25.4369 2.4795 0.0462048 0.000530889 0.662642 
40.2441 97.218 5.75441 -9.99604 -1.8331 -90.7397 -6.11076 -15.3096 -1.33643 1.20901 29.6249 22.0645 1.61965 -8.86067 0.0540652 -1.28597e-009 8.75253e-006 -1.47385e-008 -7.15734 8.96058 -1.1419 6.66485 -1.11985 -2.81396 39.0122 1.80499 0.00574956 36.9631 -31.0898 9.4441 14.5367 39.8143 -10.3951 -8.1781 9.77316 -3.59124 -33.4825 2.47094 -2.74093 -52.6967 -22.1196 -58.1784 -19.1267 47.0219 13.3046 5.82328 9.61819 -0.917488 -1.61409 2.55573 -0.177672 -3.78342 8.76724 -3.97645 -0.954827 47.1388 -9.10609 19.3628 -18.0354 1.58683 0.0462048 0.000530889 0.662642 
38.1752 97.1632 6.07119 -10.4575 -2.78704 -90.9301 -7.16422 -13.9117 -1.23761 1.23736 30.7122 22.3992 1.11841 -11.1407 0.0850401 -1.28597e-009 8.75253e-006 -1.47385e-008 -10.9533 11.3035 -1.01771 9.25912 -1.98149 -3.79 39.7371 1.81303 -0.0348303 28.1065 -30.7644 -8.09225 14.2732 42.7265 -9.65 -8.14911 9.79669 -3.96652 -30.6858 2.16084 -2.37257 -53.3466 -19.8334 -69.2871 -17.0307 46.8389 9.20805 5.82328 9.61819 -0.917488 -1.90587 0.429526 1.46015 -5.36408 0.612081 -1.74269 -1.40193 62.7236 -8.75624 18.1568 -9.84427 0.175146 0.0462048 0.000530889 0.662642 
36.1565 97.2307 6.3064 -10.7399 -3.00963 -92.3618 -7.37531 -12.292 0.0375755 1.25059 30.9138 22.4583 0.122379 -12.6652 0.0678633 -1.28597e-009 8.75253e-006 -1.47385e-008 -13.6559 13.0486 -1.06668 10.878 -2.68907 -4.73999 39.0448 1.80905 0.0124601 20.9578 -28.3158 -23.8135 12.9607 42.2733 -6.78345 -7.3601 9.80949 -4.01818 -27.422 1.77812 -1.79316 -51.1038 -20.0052 -77.0932 -13.7784 44.8782 3.10277 5.82328 9.61819 -0.917488 -2.25669 -1.20562 4.51991 -5.75778 -7.71252 0.953317 -2.73133 76.1452 -7.71016 16.1962 -6.69634 -0.310089 0.0462048 0.000530889 0.662642 
34.1566 97.7166 6.50743 -10.8072 -2.79279 -92.8363 -7.21713 -10.3671 0.518978 1.22706 29.9509 22.4207 -0.382157 -13.3901 0.0467337 -1.28597e-009 8.75253e-006 -1.47385e-008 -15.0526 14.307 -2.11025 11.9292 -3.4145 -6.2604 37.8368 1.79273 0.0762217 14.8526 -25.4812 -36.7428 11.4769 39.2454 -3.71658 -6.0337 9.82615 -4.05068 -23.9235 1.35836 -0.995095 -48.3681 -22.4028 -82.7884 -11.1932 41.3173 -1.78494 5.82328 9.61819 -0.917488 -1.99472 -1.77728 7.98327 -5.43267 -14.9983 1.99443 -10.2013 86.1195 -1.02163 15.0317 -8.18653 -0.105882 0.0462048 0.000530889 0.662642 
32.2894 98.2908 6.705 -11.0372 -2.21349 -92.8706 -6.77073 -8.17623 0.488357 1.17118 28.7251 22.6581 -0.627794 -14.285 0.0345249 -1.28597e-009 8.75253e-006 -1.47385e-008 -15.2101 15.1604 -3.4082 12.0844 -3.28498 -7.77352 36.5733 1.77687 0.148997 9.23226 -23.3317 -46.6407 10.1885 35.637 -1.55875 -5.18627 9.84588 -4.31272 -20.3227 0.941835 -0.0114928 -47.4795 -25.1403 -87.9804 -9.8084 37.7239 -3.83403 5.82328 9.61819 -0.917488 -1.18338 -1.9111 10.5487 -4.86354 -21.4285 1.92715 -167.757 86.5739 155.173 14.232 -10.5399 0.17293 0.0462048 0.000530889 0.662642 
30.4674 98.7173 6.89813 -11.6348 -1.46888 -93.637 -6.03646 -5.59035 1.34313 1.05531 27.5437 22.8137 -0.743387 -15.2256 0.0275427 -1.28597e-009 8.75253e-006 -1.47385e-008 -14.5888 15.4496 -4.15389 11.2503 -1.94232 -8.5815 35.2049 1.77454 0.267618 4.69093 -21.8857 -53.4912 9.17678 32.8262 -0.408947 -5.64376 9.84891 -4.50306 -16.6457 0.527625 1.25102 -49.368 -26.9673 -93.5019 -9.00548 35.6412 -3.673 5.82328 9.61819 -0.917488 -0.31893 -2.31262 11.9777 -3.6928 -27.1933 2.4007 -174.67 81.7738 160.885 13.287 -11.9388 0.305267 0.0462048 0.000530889 0.662642 
28.6107 99.1141 7.09205 -12.2072 -0.615991 -94.7681 -5.20259 -2.91468 2.72228 0.779842 26.1578 22.7474 -0.574193 -15.7776 0.0394588 -1.28597e-009 8.75253e-006 -1.47385e-008 -13.5039 15.3447 -4.61285 10.0427 -0.336155 -8.86562 33.8778 1.77432 0.394041 1.84263 -20.7121 -57.5907 8.61105 31.0394 0.103746 -6.95818 9.8324 -4.37906 -13.0045 0.137242 2.82233 -51.6961 -27.6472 -98.099 -8.2944 34.3641 -2.92351 5.82328 9.61819 -0.917488 0.282047 -2.96646 12.749 -2.09905 -32.282 3.17244 -175.782 79.2807 161.432 13.0812 -13.1616 0.433771 0.0462048 0.000530889 0.662642 
26.7855 99.5083 7.27296 -12.3457 0.121804 -95.3121 -4.46408 -0.778662 3.63057 0.482196 24.7955 22.5162 -0.473987 -16.4168 0.0475835 -1.28597e-009 8.75253e-006 -1.47385e-008 -12.229 15.189 -5.1774 9.03636 0.567195 -9.06219 32.9726 1.76265 0.455288 0.60472 -19.6569 -59.6038 8.45683 30.276 0.474465 -7.95641 9.8141 -4.21356 -9.87911 -0.141555 4.3188 -53.2005 -27.6278 -101.058 -7.83985 33.9789 -2.45642 5.82328 9.61819 -0.917488 0.636273 -3.50944 13.0972 -1.00361 -36.8841 3.00757 -175.826 79.0085 161.206 13.9958 -14.6077 0.65019 0.0462048 0.000530889 0.662642 
24.9917 99.7969 7.41987 -12.1506 0.738428 -95.3899 -3.85221 0.874419 4.11136 0.310465 23.638 22.1803 -0.777419 -17.4233 0.0232306 -1.28597e-009 8.75253e-006 -1.47385e-008 -11.0315 15.0651 -5.62595 8.39028 0.860199 -9.12333 32.5671 1.74863 0.460849 0.622798 -19.1568 -60.032 8.46859 30.6422 0.762464 -8.19778 9.81102 -4.20563 -7.88932 -0.274163 5.27169 -53.4857 -27.4108 -102.517 -7.70866 34.5503 -2.42897 5.82328 9.61819 -0.917488 0.864142 -3.89083 13.0419 -0.526757 -40.9152 2.00058 -175.02 80.6196 159.808 14.5708 -15.5865 0.807447 0.0462048 0.000530889 0.662642 
23.2139 100.036 7.52332 -11.9383 1.28864 -95.4915 -3.34209 2.63489 4.43776 0.156122 22.2165 21.985 -1.03104 -18.1122 -0.000639518 -1.28597e-009 8.75253e-006 -1.47385e-008 -10.048 14.9531 -5.72815 8.19076 1.06662 -8.93797 32.4472 1.74267 0.457759 1.71458 -19.6458 -58.8227 8.56168 31.8883 0.646009 -8.14185 9.80612 -4.11667 -7.27992 -0.319942 5.6492 -52.777 -27.2446 -102.914 -7.84846 35.9136 -2.54763 5.82328 9.61819 -0.917488 1.00911 -4.26067 12.783 -0.0888078 -43.7839 1.0238 -171.934 84.0076 155.754 14.0175 -15.9449 0.81169 0.0462048 0.000530889 0.662642 
21.5145 100.312 7.57369 -11.7421 1.74005 -95.42 -2.91441 4.4541 4.65653 0.0204529 20.521 21.7243 -0.92683 -18.3327 0.00857144 -1.28597e-009 8.75253e-006 -1.47385e-008 -9.30757 14.9295 -5.67858 8.49317 1.14409 -8.73301 32.4872 1.73731 0.439736 3.89468 -20.9271 -55.8918 8.82108 33.4527 0.193313 -8.16981 9.78942 -3.85141 -7.8005 -0.317489 5.57142 -51.379 -27.1188 -102.377 -8.27818 37.5335 -2.47346 5.82328 9.61819 -0.917488 0.98911 -4.51473 12.5109 0.18753 -45.2038 0.0160799 -131.044 88.8522 114.204 13.3962 -16.065 0.779121 0.0462048 0.000530889 0.662642 
19.8538 100.527 7.56168 -11.3566 2.03487 -94.8922 -2.54118 5.73761 4.76595 0.0133731 19.3517 21.0344 -1.08367 -18.8633 -0.00899832 -1.28597e-009 8.75253e-006 -1.47385e-008 -8.76351 14.9493 -5.66015 9.10542 0.756153 -8.63583 32.7144 1.72556 0.386336 7.11049 -22.5104 -51.5346 9.16963 34.8999 -0.0557221 -8.21292 9.77531 -3.63337 -9.12514 -0.245463 4.9904 -49.5132 -26.9607 -100.901 -9.04381 38.8429 -2.06682 5.82328 9.61819 -0.917488 0.700046 -4.40515 12.1302 -0.102632 -45.4932 -1.39237 -8.47384 84.1259 -8.25699 13.4184 -15.9986 0.773024 0.0462048 0.000530889 0.662642 
18.1167 100.565 7.48236 -10.7581 2.08831 -94.1781 -2.33723 6.43257 4.76537 0.105354 18.9636 20.1684 -1.78988 -19.7789 -0.0884924 -1.28597e-009 8.75253e-006 -1.47385e-008 -8.50317 14.7961 -5.5501 9.82596 0.0988789 -8.48747 33.1676 1.71899 0.324405 10.9812 -24.2547 -45.9447 9.4625 36.0983 -0.0479428 -8.11716 9.766 -3.45629 -11.2541 -0.0816105 3.94996 -47.3411 -26.7547 -98.7231 -10.1075 39.6948 -1.33311 5.82328 9.61819 -0.917488 0.238092 -4.00416 11.4775 -0.698656 -44.7872 -2.67213 -3.63586 76.5921 -12.5505 13.7379 -15.9043 0.78608 0.0462048 0.000530889 0.662642 
16.3092 100.491 7.32491 -10.1935 1.78684 -93.4816 -2.47886 7.16687 4.629 0.160867 18.5684 19.5429 -2.28374 -20.3854 -0.150567 -1.28597e-009 8.75253e-006 -1.47385e-008 -8.7696 14.4494 -5.22196 10.7871 -0.423534 -8.23516 33.8671 1.73301 0.291795 14.8825 -26.3516 -39.0091 9.78653 37.2143 -0.646778 -7.99096 9.74707 -3.10656 -14.3464 0.182142 2.65179 -45.101 -26.4246 -96.027 -11.3077 40.3418 -0.447893 5.82328 9.61819 -0.917488 -0.189425 -3.57614 10.4829 -1.33538 -42.7431 -3.31414 -2.20195 67.9658 -13.5521 14.011 -15.949 0.811517 0.0462048 0.000530889 0.662642 
14.4291 100.383 7.06877 -9.78523 1.17164 -92.6513 -2.85384 8.27906 4.43196 0.146119 17.7717 18.9554 -2.44163 -20.8986 -0.177199 -1.28597e-009 8.75253e-006 -1.47385e-008 -9.50173 14.1019 -4.68673 12.0819 -1.04474 -7.88465 34.8278 1.76207 0.272434 18.4513 -28.9679 -30.8226 10.3516 38.6601 -2.72707 -8.44576 9.70737 -2.63251 -18.3348 0.574687 1.20449 -43.1292 -25.695 -92.4788 -12.3327 41.0285 0.0113047 5.82328 9.61819 -0.917488 -0.668382 -2.98545 9.00696 -2.03274 -39.3924 -3.48944 -1.57376 58.4858 -14.1539 13.7888 -15.597 0.754226 0.0462048 0.000530889 0.662642 
12.3007 100.125 6.69811 -9.37148 0.427306 -91.8233 -3.19393 9.3718 4.39762 0.0976336 17.4314 18.0643 -3.34492 -22.1668 -0.318134 -1.28597e-009 8.75253e-006 -1.47385e-008 -10.2395 13.6194 -3.92811 13.1688 -2.08712 -7.20597 35.9408 1.78409 0.222683 22.2672 -31.8714 -21.5193 11.3467 40.784 -6.1789 -10.1323 9.62893 -2.15238 -22.7969 1.09774 -0.265303 -41.0548 -24.2537 -87.3227 -12.7586 41.4595 -0.781932 5.82328 9.61819 -0.917488 -1.41961 -1.85025 6.94761 -2.58538 -35.4958 -3.22379 -1.28944 49.4162 -14.9713 12.8821 -14.7546 0.596279 0.0462048 0.000530889 0.662642 
9.82564 99.6058 6.22243 -8.91861 -0.343578 -91.243 -3.49637 10.1651 4.61936 0.0642215 18.1919 17.1018 -4.92687 -23.8615 -0.588876 -1.28597e-009 8.75253e-006 -1.47385e-008 -10.5785 12.4628 -3.06095 13.2575 -2.72792 -6.18621 36.829 1.78806 0.15243 27.7375 -34.069 -10.6004 12.8996 43.5476 -9.89514 -12.3656 9.51117 -1.58727 -26.991 1.63722 -1.44134 -37.6987 -21.745 -80.1904 -12.3487 40.9281 -2.95155 5.82328 9.61819 -0.917488 -2.14053 -0.438038 4.53732 -2.98199 -31.3582 -2.75934 -1.1711 41.8302 -16.0774 12.3249 -14.56 0.540523 0.0462048 0.000530889 0.662642 
7.13404 99.0035 5.66821 -8.68369 -1.08705 -90.5186 -3.72745 11.2204 4.83914 0.236301 19.1159 16.2759 -5.64557 -25.022 -0.74718 -1.28597e-009 8.75253e-006 -1.47385e-008 -10.1748 10.4082 -2.48524 12.2427 -1.71076 -5.34118 37.073 1.77977 0.111917 35.3257 -34.3688 2.40923 14.7029 46.9921 -12.3696 -13.3431 9.41576 -0.988746 -30.2232 2.0519 -2.15165 -34.1759 -18.0593 -72.071 -11.6303 40.5309 -5.05304 5.82328 9.61819 -0.917488 -2.25189 0.427532 2.0714 -3.45878 -26.1949 -3.45888 -1.12461 34.9364 -16.8551 12.5999 -14.9891 0.600619 0.0462048 0.000530889 0.662642 
